#!OML:ASF X:\für Bonn\!DataBase\2005_08_12_Daniel\c3d\Daniel.ASF
:FULLY-SPECIFIED
:DEGREES
1
root -0.366808 17.0253 -0.72776 87.572 -88.4893 -97.3644
lowerback 20.4753 -1.6006 3.38942
upperback 1.86351 -1.68909 -2.00124
thorax -9.6024 -1.05016 -3.64715
lowerneck 8.12099 1.89166 -0.594215
upperneck 4.97513 2.31314 -0.299769
head 0.196508 1.07868 -0.0438143
rclavicle -4.12478e-015 -2.38542e-015
rhumerus 57.8613 -1.17722 -103.278
rradius 8.4553
rwrist 64.0461
rhand -19.3491 6.79457
rfingers 7.12502
rthumb 6.96821 -23.0707
lclavicle -4.12478e-015 -2.38542e-015
lhumerus 62.2547 5.86697 104.75
lradius 8.71076
lwrist -82.1188
lhand -15.2736 2.92837
lfingers 7.12502
lthumb 10.9009 32.6254
rfemur 6.15659 5.74086 18.6732
rtibia 23.778
rfoot -25.1153 -10.5709
rtoes -13.176
lfemur -4.37463 -11.116 -15.4603
ltibia 38.8401
lfoot -31.1669 11.3908
ltoes 0.0677584
2
root -0.367249 17.0259 -0.734843 86.5503 -88.4585 -96.4627
lowerback 20.4944 -1.59556 3.38625
upperback 1.95027 -1.68534 -1.98941
thorax -9.51544 -1.04653 -3.633
lowerneck 8.1189 1.89085 -0.657902
upperneck 4.87366 2.30894 -0.257223
head 0.164485 1.07708 -0.0212109
rclavicle 8.24956e-015 -5.56597e-015
rhumerus 58.1561 -1.03495 -103.206
rradius 8.03381
rwrist 63.7177
rhand -19.4628 6.73553
rfingers 7.12502
rthumb 6.85838 -23.1334
lclavicle 8.24956e-015 -5.56597e-015
lhumerus 62.3694 5.78858 104.661
lradius 8.51548
lwrist -81.9005
lhand -15.404 3.01304
lfingers 7.12502
lthumb 10.7751 32.7167
rfemur 6.41476 6.04944 18.8773
rtibia 23.6105
rfoot -25.2384 -10.9014
rtoes -13.1448
lfemur -4.25522 -11.1155 -15.4218
ltibia 38.8451
lfoot -31.124 11.4071
ltoes -0.115876
3
root -0.364646 17.0242 -0.740825 85.2836 -88.4144 -95.3101
lowerback 20.546 -1.60094 3.42971
upperback 2.04349 -1.68632 -1.9953
thorax -9.44145 -1.04784 -3.66363
lowerneck 8.07285 1.87887 -0.627766
upperneck 4.77895 2.29952 -0.272445
head 0.143347 1.07483 -0.030546
rclavicle -9.19379e-016 8.74653e-015
rhumerus 58.4625 -0.89435 -103.167
rradius 7.63641
rwrist 63.5158
rhand -19.5639 6.63176
rfingers 7.12502
rthumb 6.76079 -23.2403
lclavicle -9.19379e-016 8.74653e-015
lhumerus 62.48 5.70663 104.537
lradius 8.35789
lwrist -81.694
lhand -15.5143 3.0687
lfingers 7.12502
lthumb 10.6687 32.7778
rfemur 6.59338 6.13709 19.0147
rtibia 23.5177
rfoot -25.2579 -11.0832
rtoes -13.2393
lfemur -4.1845 -11.0752 -15.3498
ltibia 38.8978
lfoot -31.0944 11.3571
ltoes -0.270028
4
root -0.360271 17.0214 -0.747365 83.8914 -88.3511 -93.9886
lowerback 20.6071 -1.61394 3.45991
upperback 2.09723 -1.69469 -1.96765
thorax -9.41575 -1.05207 -3.64746
lowerneck 8.09169 1.8875 -0.722791
upperneck 4.67053 2.30469 -0.218117
head 0.105248 1.07728 0.000253678
rclavicle 4.79568e-015 1.03368e-014
rhumerus 58.6669 -0.702639 -103.112
rradius 7.3191
rwrist 63.3432
rhand -19.6561 6.5569
rfingers 7.12502
rthumb 6.67177 -23.318
lclavicle 4.79568e-015 1.03368e-014
lhumerus 62.527 5.6874 104.432
lradius 8.26852
lwrist -81.531
lhand -15.6377 3.18655
lfingers 7.12502
lthumb 10.5497 32.9018
rfemur 6.65623 6.09253 19.1192
rtibia 23.5171
rfoot -25.21 -11.1245
rtoes -13.1944
lfemur -4.2041 -10.9425 -15.2131
ltibia 38.9888
lfoot -31.0206 11.197
ltoes -0.309848
5
root -0.354038 17.0172 -0.753821 82.3124 -88.2887 -92.5319
lowerback 20.7508 -1.63109 3.56605
upperback 2.17449 -1.69474 -1.97917
thorax -9.41153 -1.05704 -3.7199
lowerneck 8.07191 1.88235 -0.831229
upperneck 4.57373 2.29088 -0.121823
head 0.0761798 1.07001 0.0467932
rclavicle 6.4605e-015 -4.77083e-015
rhumerus 58.8154 -0.578891 -103.071
rradius 7.17052
rwrist 63.2916
rhand -19.6449 6.52014
rfingers 7.12502
rthumb 6.68263 -23.3544
lclavicle 6.4605e-015 -4.77083e-015
lhumerus 62.571 5.61334 104.298
lradius 8.1823
lwrist -81.3828
lhand -15.7395 3.20798
lfingers 7.12502
lthumb 10.4515 32.9282
rfemur 6.6833 5.84653 19.1532
rtibia 23.6265
rfoot -25.1028 -11.0378
rtoes -13.3856
lfemur -4.20124 -10.7537 -15.0679
ltibia 39.1058
lfoot -30.9263 11.0126
ltoes -0.421343
6
root -0.346174 17.0108 -0.759132 80.4543 -88.2414 -90.7979
lowerback 20.9193 -1.65789 3.63376
upperback 2.24999 -1.71285 -1.96633
thorax -9.42247 -1.06883 -3.73788
lowerneck 8.05286 1.89975 -1.00024
upperneck 4.49563 2.30164 -0.0273521
head 0.0518747 1.07377 0.102192
rclavicle 6.31141e-015 -2.38542e-015
rhumerus 58.8411 -0.390717 -103.007
rradius 7.22204
rwrist 63.3586
rhand -19.5561 6.47669
rfingers 7.12502
rthumb 6.76839 -23.3951
lclavicle 6.31141e-015 -2.38542e-015
lhumerus 62.6497 5.56161 104.217
lradius 8.073
lwrist -81.2727
lhand -15.7933 3.33367
lfingers 7.12502
lthumb 10.3996 33.0565
rfemur 6.64202 5.41656 19.0975
rtibia 23.8333
rfoot -24.9316 -10.762
rtoes -13.4838
lfemur -4.23036 -10.488 -14.9195
ltibia 39.256
lfoot -30.8025 10.7475
ltoes -0.672915
7
root -0.336847 17.0014 -0.765573 78.8067 -88.24 -89.2802
lowerback 21.1412 -1.66607 3.62217
upperback 2.31104 -1.72399 -1.96358
thorax -9.47581 -1.07552 -3.72289
lowerneck 8.04362 1.89952 -1.09208
upperneck 4.4404 2.29479 0.0411114
head 0.034309 1.06962 0.137755
rclavicle -1.49089e-016 5.56597e-015
rhumerus 58.795 -0.236337 -102.936
rradius 7.382
rwrist 63.5135
rhand -19.4022 6.45901
rfingers 7.12502
rthumb 6.91694 -23.408
lclavicle -1.49089e-016 5.56597e-015
lhumerus 62.7344 5.51647 104.116
lradius 7.91282
lwrist -81.1792
lhand -15.8561 3.43479
lfingers 7.12502
lthumb 10.339 33.1606
rfemur 6.54063 4.95473 18.9712
rtibia 24.1363
rfoot -24.7884 -10.4228
rtoes -13.5177
lfemur -4.2864 -10.0338 -14.7578
ltibia 39.4357
lfoot -30.6198 10.3019
ltoes -0.663867
8
root -0.326821 16.9912 -0.77086 76.566 -88.2373 -87.1623
lowerback 21.364 -1.67936 3.62543
upperback 2.38173 -1.73972 -1.96838
thorax -9.5197 -1.085 -3.72338
lowerneck 8.00475 1.89976 -1.14161
upperneck 4.37584 2.29364 0.078747
head 0.019565 1.0695 0.157246
rclavicle -3.47873e-015 -3.97569e-015
rhumerus 58.7863 -0.0622458 -102.888
rradius 7.52793
rwrist 63.7702
rhand -19.2761 6.36926
rfingers 7.12502
rthumb 7.03859 -23.4937
lclavicle -3.47873e-015 -3.97569e-015
lhumerus 62.8382 5.43938 104.023
lradius 7.76246
lwrist -81.0921
lhand -15.8633 3.56023
lfingers 7.12502
lthumb 10.332 33.2864
rfemur 6.3735 4.30572 18.771
rtibia 24.5271
rfoot -24.6196 -9.88844
rtoes -13.6813
lfemur -4.40902 -9.35278 -14.5325
ltibia 39.6679
lfoot -30.3261 9.69038
ltoes -0.908697
9
root -0.315977 16.9777 -0.776709 74.296 -88.2497 -85.0351
lowerback 21.6318 -1.69516 3.57862
upperback 2.44727 -1.76778 -1.95762
thorax -9.59271 -1.09873 -3.67362
lowerneck 7.97701 1.90927 -1.23914
upperneck 4.33736 2.29969 0.131282
head 0.01018 1.07167 0.188929
rclavicle -1.20265e-014 -7.95139e-015
rhumerus 58.7691 0.127452 -102.809
rradius 7.62719
rwrist 64.0515
rhand -19.2441 6.3356
rfingers 7.12502
rthumb 7.06952 -23.5263
lclavicle -1.20265e-014 -7.95139e-015
lhumerus 62.9811 5.39661 103.947
lradius 7.57319
lwrist -80.9765
lhand -15.8222 3.69699
lfingers 7.12502
lthumb 10.3716 33.4212
rfemur 6.17252 3.5735 18.5212
rtibia 25.0186
rfoot -24.4596 -9.26152
rtoes -13.7718
lfemur -4.55278 -8.58424 -14.2936
ltibia 39.9572
lfoot -30.0556 8.96596
ltoes -0.973961
10
root -0.304298 16.9596 -0.781717 71.5048 -88.2515 -82.4029
lowerback 21.937 -1.70697 3.56615
upperback 2.51867 -1.78389 -1.96263
thorax -9.67935 -1.10895 -3.6642
lowerneck 7.96412 1.8972 -1.26521
upperneck 4.26147 2.28374 0.156457
head -0.0117217 1.06457 0.200951
rclavicle 4.72114e-015 -1.74931e-014
rhumerus 58.8026 0.267006 -102.733
rradius 7.69983
rwrist 64.2778
rhand -19.1568 6.32231
rfingers 7.12502
rthumb 7.1538 -23.5368
lclavicle 4.72114e-015 -1.74931e-014
lhumerus 63.1185 5.28351 103.878
lradius 7.39677
lwrist -80.862
lhand -15.7594 3.89551
lfingers 7.12502
lthumb 10.4322 33.6167
rfemur 5.94059 2.74987 18.2365
rtibia 25.6089
rfoot -24.3599 -8.48987
rtoes -13.9232
lfemur -4.7312 -7.75732 -14.0305
ltibia 40.3348
lfoot -29.7798 8.16444
ltoes -1.05715
11
root -0.290906 16.9365 -0.785886 69.0101 -88.2729 -80.0497
lowerback 22.2505 -1.71852 3.52054
upperback 2.57171 -1.80581 -1.95882
thorax -9.78993 -1.12082 -3.62396
lowerneck 7.95548 1.90191 -1.32982
upperneck 4.22264 2.2857 0.194701
head -0.0236866 1.06513 0.222936
rclavicle 6.06293e-015 2.62396e-014
rhumerus 58.8538 0.429123 -102.637
rradius 7.70069
rwrist 64.3775
rhand -19.1761 6.32783
rfingers 7.12502
rthumb 7.13515 -23.5319
lclavicle 6.06293e-015 2.62396e-014
lhumerus 63.2181 5.20851 103.822
lradius 7.26633
lwrist -80.7577
lhand -15.7543 4.0991
lfingers 7.12502
lthumb 10.4372 33.82
rfemur 5.61588 1.83898 17.884
rtibia 26.3198
rfoot -24.2596 -7.59908
rtoes -14.2277
lfemur -4.9741 -6.9526 -13.7992
ltibia 40.8088
lfoot -29.6101 7.34928
ltoes -1.15247
